<svg id="number_2" data-name="Layer 1" xmlns="http://www.w3.org/2000/svg" width="811.4" height="350" viewBox="0 0 811.4 455.1">
    <g>
        <g>
            <g>
                <path class="el el-1" fill="#4d4d4d" d="M445.7,333.6h-4.6s-27-6-27-71.8c0-19.4-119.4-19.5-119.4,1.3,0,63.3-27.8,70.5-27.8,70.5h-3.7a5.9,5.9,0,0,0-5.9,5.6v2.6c0,2.9,2.6,4.7,5.9,4.7H445.7c3.3,0,6.5-1.8,6.5-4.7v-2.6C452.2,336.3,449.1,333.6,445.7,333.6Z"></path>
                <path class="el el-2" fill="#4d4d4d" d="M566.3,4.6H141.8c-8.2,0-15.6,4.2-15.6,11.3V273.8c0,7.1,7.4,15.8,15.6,15.8H566.3c8.2,0,11.9-8.7,11.9-15.8V15.9C578.2,8.8,574.5,4.6,566.3,4.6Z">
                    <animate></animate>
                </path>
                <rect class="el el-3" fill="#f2f2f2" x="148.2" y="25.6" width="409" height="204"></rect>
                <path class="el el-4" fill="#b3b3b3" d="M372.6,260.8A18.5,18.5,0,0,1,354,279.3h0a18.5,18.5,0,0,1-18.5-18.5h0A18.5,18.5,0,0,1,354,242.3h0a18.5,18.5,0,0,1,18.5,18.5Z"></path>
            </g>
            <g>
                <path class="el el-5" fill="#ff4522" d="M289.2,54.8c0,2.9-3.1,4.8-8.5,4.8H176.6c-5.4,0-9.5-1.9-9.5-4.8V44.3c0-2.9,4.1-5.8,9.5-5.8H280.7c5.4,0,8.5,2.8,8.5,5.8Z"></path>
                <path class="el el-6" fill="#47dee5" d="M537.2,121.8c0,2.9-4,4.8-9.3,4.8H176.6c-5.4,0-9.5-1.9-9.5-4.8V72.3c0-2.9,4.1-5.8,9.5-5.8H527.8c5.4,0,9.3,2.8,9.3,5.8Z"></path>
                <path class="el el-7" fill="#006480" d="M280.2,163.8c0,2.9-3.3,4.8-8.7,4.8H176.6c-5.4,0-9.5-1.9-9.5-4.8V137.3c0-2.9,4.1-5.8,9.5-5.8h94.9c5.4,0,8.7,2.8,8.7,5.8Z"></path>
                <path class="el el-8" fill="#006480" d="M405.2,163.8c0,2.9-2.9,4.8-8.3,4.8H302c-5.4,0-10.9-1.9-10.9-4.8V137.3c0-2.9,5.5-5.8,10.9-5.8h94.9c5.4,0,8.3,2.8,8.3,5.8Z"></path>
                <path class="el el-9" fill="#006480" d="M537.2,163.8c0,2.9-4,4.8-9.3,4.8H433c-5.4,0-9.8-1.9-9.8-4.8V137.3c0-2.9,4.4-5.8,9.8-5.8h94.9c5.4,0,9.3,2.8,9.3,5.8Z"></path>
                <g>
                    <path class="el el-10" fill="#047994" d="M405.2,179.1c0,1.2-.4,1.5-2.6,1.5H296.8c-2.2,0-5.6-.3-5.6-1.5v-.9c0-1.2,3.5-2.6,5.6-2.6H402.6a2.3,2.3,0,0,1,2.6,2.6Z"></path>
                    <path class="el el-11" fill="#047994" d="M405.2,187.9c0,1.2-.4,1.7-2.6,1.7H296.8c-2.2,0-5.6-.5-5.6-1.7V187c0-1.2,3.5-2.4,5.6-2.4H402.6c2.2,0,2.6,1.2,2.6,2.4Z"></path>
                    <path class="el el-12" fill="#047994" d="M405.2,196.7c0,1.2-.4,1.9-2.6,1.9H296.8c-2.2,0-5.6-.7-5.6-1.9v-.9c0-1.2,3.5-2.2,5.6-2.2H402.6c2.2,0,2.6,1,2.6,2.2Z"></path>
                    <path class="el el-13" fill="#047994" d="M405.2,205.5c0,1.2-.4,2.1-2.6,2.1H296.8c-2.2,0-5.6-.9-5.6-2.1v-.9c0-1.2,3.5-3,5.6-3H402.6c2.2,0,2.6,1.8,2.6,3Z"></path>
                    <path class="el el-14" fill="#047994" d="M353.2,214.3c0,1.2-.4,1.3-2.6,1.3H296.8c-2.2,0-5.6-.1-5.6-1.3v-.9c0-1.2,3.5-2.8,5.6-2.8h53.8c2.2,0,2.6,1.6,2.6,2.8Z"></path>
                </g>
                <g>
                    <path class="el el-15" fill="#047994" d="M533.2,179.1c0,1.2,1.4,1.5-.8,1.5H426.7c-2.2,0-3.5-.3-3.5-1.5v-.9c0-1.2,1.3-2.6,3.5-2.6H532.4c2.2,0,.8,1.4.8,2.6Z"></path>
                    <path class="el el-16" fill="#047994" d="M533.2,187.9c0,1.2,1.4,1.7-.8,1.7H426.7c-2.2,0-3.5-.5-3.5-1.7V187c0-1.2,1.3-2.4,3.5-2.4H532.4c2.2,0,.8,1.2.8,2.4Z"></path>
                    <path class="el el-17" fill="#047994" d="M533.2,196.7c0,1.2,1.4,1.9-.8,1.9H426.7c-2.2,0-3.5-.7-3.5-1.9v-.9c0-1.2,1.3-2.2,3.5-2.2H532.4c2.2,0,.8,1,.8,2.2Z"></path>
                    <path class="el el-18" fill="#047994" d="M533.2,205.5c0,1.2,1.4,2.1-.8,2.1H426.7c-2.2,0-3.5-.9-3.5-2.1v-.9a3.4,3.4,0,0,1,3.5-3H532.4c2.2,0,.8,1.8.8,3Z"></path>
                    <path class="el el-19" fill="#047994" d="M483.2,214.3c0,1.2-.5,1.3-2.7,1.3H426.7c-2.2,0-3.5-.1-3.5-1.3v-.9a3.3,3.3,0,0,1,3.5-2.8h53.8a2.5,2.5,0,0,1,2.7,2.8Z"></path>
                </g>
                <g>
                    <path class="el el-20" fill="#047994" d="M278.2,179.1c0,1.2-.1,1.5-2.2,1.5H170.2c-2.2,0-3-.3-3-1.5v-.9c0-1.2.9-2.6,3-2.6H276c2.2,0,2.2,1.4,2.2,2.6Z"></path>
                    <path class="el el-21" fill="#047994" d="M278.2,187.9c0,1.2-.1,1.7-2.2,1.7H170.2c-2.2,0-3-.5-3-1.7V187c0-1.2.9-2.4,3-2.4H276c2.2,0,2.2,1.2,2.2,2.4Z"></path>
                    <path class="el el-22" fill="#047994" d="M278.2,196.7c0,1.2-.1,1.9-2.2,1.9H170.2c-2.2,0-3-.7-3-1.9v-.9c0-1.2.9-2.2,3-2.2H276c2.2,0,2.2,1,2.2,2.2Z"></path>
                    <path class="el el-23" fill="#047994" d="M278.2,205.5c0,1.2-.1,2.1-2.2,2.1H170.2c-2.2,0-3-.9-3-2.1v-.9a3,3,0,0,1,3-3H276c2.2,0,2.2,1.8,2.2,3Z"></path>
                    <path class="el el-24" fill="#047994" d="M227.2,214.3c0,1.2-1,1.3-3.2,1.3H170.2c-2.2,0-3-.1-3-1.3v-.9a2.8,2.8,0,0,1,3-2.8H224a2.9,2.9,0,0,1,3.2,2.8Z"></path>
                </g>
            </g>
        </g>
        <g>
            <g>
                <path class="el el-25" fill="#4d4d4d" d="M766.2,424.6h-302V231.4c0-4,4-6.8,8-6.8h288c4,0,6,2.8,6,6.8Z"></path>
                <rect class="el el-26" fill="#f2f2f2" x="476.2" y="238.6" width="280" height="171"></rect>
                <path class="el el-27" fill="#4d4d4d" d="M805.2,432.6v-8c0-2-1-3-3.1-3h-370c-2,0-3.9,1-3.9,3v8h.3s9.1,7,14.6,7H791.2c5.5,0,14.6-7,14.6-7Z"></path>
                <path class="el el-28" fill="#b3b3b3" d="M649.9,427.6H584.3c-5.5,0-5.5-6-5.5-6h76.6S655.4,427.6,649.9,427.6Z"></path>
            </g>
            <g>
                <path class="el el-29" fill="#ff4522" d="M588.2,263.5a3.9,3.9,0,0,1-4.1,4.1H537c-2.4,0-4.8-1.7-4.8-4.1v-8.8c0-2.4,2.4-5.1,4.8-5.1h47.1c2.4,0,4.1,2.6,4.1,5.1Z"></path>
                <rect class="el el-30" fill="#47dee5" x="532.2" y="273.6" width="168" height="50" rx="4.4" ry="4.4"></rect>
                <path class="el el-31" fill="#006480" d="M584.2,354.7c0,2.4-2.1,3.9-4.5,3.9H537c-2.4,0-4.8-1.4-4.8-3.9V332.7c0-2.4,2.4-5.1,4.8-5.1h42.7c2.4,0,4.5,2.6,4.5,5.1Z"></path>
                <rect class="el el-32" fill="#006480" x="590.2" y="327.6" width="51" height="31" rx="4.4" ry="4.4"></rect>
                <rect class="el el-33" fill="#006480" x="648.2" y="327.6" width="51" height="31" rx="4.4" ry="4.4"></rect>
                <g>
                    <path class="el el-34" fill="#047994" d="M641.2,367.6c0,1-.5,1-1.5,1H591.8c-1,0-1.6,0-1.6-1v-.7c0-1,.6-2.3,1.6-2.3h47.9c1,0,1.5,1.3,1.5,2.3Z"></path>
                    <path class="el el-35" fill="#047994" d="M641.2,375c0,1-.5,1.6-1.5,1.6H591.8a1.5,1.5,0,0,1-1.6-1.6v-.7c0-1,.6-2.6,1.6-2.6h47.9c1,0,1.5,1.6,1.5,2.6Z"></path>
                    <path class="el el-36" fill="#047994" d="M641.2,382.3c0,1-.5,2.3-1.5,2.3H591.8c-1,0-1.6-1.3-1.6-2.3v-.7c0-1,.6-3,1.6-3h47.9c1,0,1.5,2,1.5,3Z"></path>
                    <path class="el el-37" fill="#047994" d="M641.2,389.7c0,1-.5,1.9-1.5,1.9H591.8a1.7,1.7,0,0,1-1.6-1.9v-.7c0-1,.6-2.3,1.6-2.3h47.9c1,0,1.5,1.3,1.5,2.3Z"></path>
                    <path class="el el-38" fill="#047994" d="M617.2,397c0,1,0,1.6-1,1.6H591.8a1.4,1.4,0,0,1-1.6-1.6v-.7c0-1,.6-2.7,1.6-2.7h24.4c1,0,1,1.7,1,2.7Z"></path>
                </g>
                <g>
                    <path class="el el-39" fill="#047994" d="M700.2,367.6c0,1-.6,1-1.6,1H650.6c-1,0-2.4,0-2.4-1v-.7a2.9,2.9,0,0,1,2.4-2.3h47.9c1,0,1.6,1.3,1.6,2.3Z"></path>
                    <path class="el el-40" fill="#047994" d="M700.2,375a1.5,1.5,0,0,1-1.6,1.6H650.6c-1,0-2.4-.6-2.4-1.6v-.7a3.3,3.3,0,0,1,2.4-2.6h47.9c1,0,1.6,1.6,1.6,2.6Z"></path>
                    <path class="el el-41" fill="#047994" d="M700.2,382.3c0,1-.6,2.3-1.6,2.3H650.6a2.9,2.9,0,0,1-2.4-2.3v-.7c0-1,1.5-3,2.4-3h47.9c1,0,1.6,2,1.6,3Z"></path>
                    <path class="el el-42" fill="#047994" d="M700.2,389.7a1.8,1.8,0,0,1-1.6,1.9H650.6c-1,0-2.4-.9-2.4-1.9v-.7a3,3,0,0,1,2.4-2.3h47.9c1,0,1.6,1.3,1.6,2.3Z"></path>
                    <path class="el el-43" fill="#047994" d="M677.2,397c0,1-1.2,1.6-2.2,1.6H650.6c-1,0-2.4-.5-2.4-1.6v-.7c0-1,1.5-2.7,2.4-2.7H675c1,0,2.2,1.7,2.2,2.7Z"></path>
                </g>
                <g>
                    <path class="el el-44" fill="#047994" d="M584.2,367.6c0,1-.9,1-1.9,1H534.4c-1,0-2.2,0-2.2-1v-.7a2.6,2.6,0,0,1,2.2-2.3h47.9c1,0,1.9,1.3,1.9,2.3Z"></path>
                    <path class="el el-45" fill="#047994" d="M584.2,375a1.7,1.7,0,0,1-1.9,1.6H534.4c-1,0-2.2-.6-2.2-1.6v-.7c0-1,1.2-2.6,2.2-2.6h47.9c1,0,1.9,1.6,1.9,2.6Z"></path>
                    <path class="el el-46" fill="#047994" d="M584.2,382.3c0,1-.9,2.3-1.9,2.3H534.4a2.6,2.6,0,0,1-2.2-2.3v-.7c0-1,1.2-3,2.2-3h47.9c1,0,1.9,2,1.9,3Z"></path>
                    <path class="el el-47" fill="#047994" d="M584.2,389.7a2,2,0,0,1-1.9,1.9H534.4a2.3,2.3,0,0,1-2.2-1.9v-.7a2.7,2.7,0,0,1,2.2-2.3h47.9c1,0,1.9,1.3,1.9,2.3Z"></path>
                    <path class="el el-48" fill="#047994" d="M560.2,397c0,1-.4,1.6-1.4,1.6H534.4c-1,0-2.2-.5-2.2-1.6v-.7c0-1,1.2-2.7,2.2-2.7h24.4c1,0,1.4,1.7,1.4,2.7Z"></path>
                </g>
            </g>
        </g>
        <g>
            <g>
                <path class="el el-49" fill="#4d4d4d" d="M176.2,391.5a13.9,13.9,0,0,1-13.7,14.1H19.5c-7.7,0-14.3-6.4-14.3-14.1V193.6c0-7.7,6.7-15,14.3-15h143c7.7,0,13.7,7.3,13.7,15Z"></path>
                <rect class="el el-50" fill="#f2f2f2" x="19.2" y="195.6" width="143" height="174"></rect>
                <circle class="el el-51" fill="#b3b3b3" cx="91" cy="387.6" r="11.5"></circle>
            </g>
            <g>
                <path class="el el-52" fill="#ff4522" d="M92.2,222.6a4.1,4.1,0,0,1-4.2,3.9H41.4a4.1,4.1,0,0,1-4.2-3.9v-9.1a4.1,4.1,0,0,1,4.2-3.9H88a4.1,4.1,0,0,1,4.2,3.9Z"></path>
                <path class="el el-53" fill="#47dee5" d="M144.2,277.8c0,2.7-1.8,4.8-4,4.8h-99c-2.2,0-4-2.2-4-4.8V237.4c0-2.7,1.8-4.8,4-4.8h99c2.2,0,4,2.2,4,4.8Z"></path>
                <path class="el el-54" fill="#006480" d="M88.2,313.1c0,2.4-2.2,3.5-4.6,3.5H41.5c-2.4,0-4.4-1.1-4.4-3.5V291.3a4.7,4.7,0,0,1,4.4-4.7H83.6a4.9,4.9,0,0,1,4.6,4.7Z"></path>
                <rect class="el el-55" fill="#006480" x="94.2" y="286.6" width="50" height="30" rx="4" ry="4"></rect>
                <g>
                    <path class="el el-56" fill="#047994" d="M144.2,325.7c0,1-.5.9-1.4.9H95.5c-1,0-1.3.2-1.3-.9V325c0-1,.4-2.4,1.3-2.4h47.2c1,0,1.4,1.4,1.4,2.4Z"></path>
                    <path class="el el-57" fill="#047994" d="M144.2,333c0,1-.5,1.6-1.4,1.6H95.5c-1,0-1.3-.6-1.3-1.6v-.7c0-1,.4-2.7,1.3-2.7h47.2c1,0,1.4,1.7,1.4,2.7Z"></path>
                    <path class="el el-58" fill="#047994" d="M144.2,340.2c0,1-.5,1.3-1.4,1.3H95.5c-1,0-1.3-.3-1.3-1.3v-.7c0-1,.4-1.9,1.3-1.9h47.2c1,0,1.4.9,1.4,1.9Z"></path>
                    <path class="el el-59" fill="#047994" d="M144.2,347.5c0,1-.5,1.1-1.4,1.1H95.5c-1,0-1.3-.1-1.3-1.1v-.7c0-1,.4-2.2,1.3-2.2h47.2c1,0,1.4,1.2,1.4,2.2Z"></path>
                    <path class="el el-60" fill="#047994" d="M121.2,354.8a1.7,1.7,0,0,1-1.6,1.8h-24c-1,0-1.3-.8-1.3-1.8V354c0-1,.4-2.4,1.3-2.4h24c1,0,1.6,1.4,1.6,2.4Z"></path>
                </g>
                <g>
                    <path class="el el-61" fill="#047994" d="M88.2,325.7c0,1-1,.9-2,.9H39c-1,0-1.8.2-1.8-.9V325c0-1,.8-2.4,1.8-2.4H86.2c1,0,2,1.4,2,2.4Z"></path>
                    <path class="el el-62" fill="#047994" d="M88.2,333a1.8,1.8,0,0,1-2,1.6H39a1.6,1.6,0,0,1-1.8-1.6v-.7c0-1,.8-2.7,1.8-2.7H86.2c1,0,2,1.7,2,2.7Z"></path>
                    <path class="el el-63" fill="#047994" d="M88.2,340.2c0,1-1,1.3-2,1.3H39c-1,0-1.8-.3-1.8-1.3v-.7a1.9,1.9,0,0,1,1.8-1.9H86.2a2.1,2.1,0,0,1,2,1.9Z"></path>
                    <path class="el el-64" fill="#047994" d="M88.2,347.5c0,1-1,1.1-2,1.1H39c-1,0-1.8-.1-1.8-1.1v-.7c0-1,.8-2.2,1.8-2.2H86.2a2.4,2.4,0,0,1,2,2.2Z"></path>
                    <path class="el el-65" fill="#047994" d="M65.2,354.8c0,1-1.2,1.8-2.2,1.8H39a1.8,1.8,0,0,1-1.8-1.8V354c0-1,.8-2.4,1.8-2.4H63a2.8,2.8,0,0,1,2.2,2.4Z"></path>
                </g>
            </g>
        </g>
        <g>
            <g>
                <path class="el el-66" fill="#4d4d4d" d="M249.2,437.8c0,6.5-6.3,11.8-12.7,11.8H162.1a12,12,0,0,1-11.9-11.8V277.4c0-6.5,5.4-12.8,11.9-12.8h74.3c6.5,0,12.7,6.3,12.7,12.8Z"></path>
                <g>
                    <path class="el el-67" fill="#4d4d4d" d="M249.2,437.8c0,6.5-6.3,11.8-12.7,11.8H162.1a12,12,0,0,1-11.9-11.8V277.4c0-6.5,5.4-12.8,11.9-12.8h74.3c6.5,0,12.7,6.3,12.7,12.8Z"></path>
                    <rect class="el el-68" fill="#f2f2f2" x="157.2" y="287.6" width="85" height="135"></rect>
                    <circle class="el el-69" fill="#b3b3b3" cx="199.3" cy="436.3" r="7.1"></circle>
                    <rect class="el el-70" fill="#b3b3b3" x="177.2" y="276.6" width="39" height="4" rx="1.9" ry="1.9"></rect>
                </g>
            </g>
            <g>
                <rect class="el el-71" fill="#ff4522" x="166.2" y="297.6" width="67" height="14" rx="3.5" ry="3.5"></rect>
                <path class="el el-72" fill="#47dee5" d="M233.2,352.5c0,1.9-1.6,3-3.5,3h-60c-1.9,0-3.5-1.1-3.5-3v-33c0-1.9,1.6-4,3.5-4h60c1.9,0,3.5,2,3.5,4Z"></path>
                <path class="el el-73" fill="#006480" d="M233.2,380.6c0,1.9-1.2,3-3.2,3H169.4c-2,0-3.2-1-3.2-3V363a3.2,3.2,0,0,1,3.2-3.4H230a3.1,3.1,0,0,1,3.2,3.4Z"></path>
                <path class="el el-74" fill="#006480" d="M233.2,409.6c0,1.9-1.2,3-3.2,3H169.4c-2,0-3.2-1-3.2-3V392a3.2,3.2,0,0,1,3.2-3.4H230a3.1,3.1,0,0,1,3.2,3.4Z"></path>
            </g>
        </g>
    </g>
</svg>